<svg xmlns="http://www.w3.org/2000/svg" xmlns:xlink="http://www.w3.org/1999/xlink" contentStyleType="text/css" data-diagram-type="SEQUENCE" height="266px" preserveAspectRatio="none" style="width:356px;height:266px;background:#FFFFFF;" version="1.1" viewBox="0 0 356 266" width="356px" zoomAndPan="magnify"><defs/><g><g><title>User</title><rect fill="#000000" fill-opacity="0.00000" height="194.7969" width="8" x="23.9551" y="36.2969"/><line style="stroke:#181818;stroke-width:0.5;stroke-dasharray:5,5;" x1="27" x2="27" y1="36.2969" y2="231.0938"/></g><g><title>Browser</title><rect fill="#000000" fill-opacity="0.00000" height="194.7969" width="8" x="118.1538" y="36.2969"/><line style="stroke:#181818;stroke-width:0.5;stroke-dasharray:5,5;" x1="121.6343" x2="121.6343" y1="36.2969" y2="231.0938"/></g><g><title>Server</title><rect fill="#000000" fill-opacity="0.00000" height="194.7969" width="8" x="225.27" y="36.2969"/><line style="stroke:#181818;stroke-width:0.5;stroke-dasharray:5,5;" x1="228.3149" x2="228.3149" y1="36.2969" y2="231.0938"/></g><g><title>Database</title><rect fill="#000000" fill-opacity="0.00000" height="194.7969" width="8" x="305.6255" y="36.2969"/><line style="stroke:#181818;stroke-width:0.5;stroke-dasharray:5,5;" x1="309.2251" x2="309.2251" y1="36.2969" y2="231.0938"/></g><g class="participant participant-head" data-participant="User"><rect fill="#E2E2F0" height="30.2969" rx="2.5" ry="2.5" style="stroke:#181818;stroke-width:0.5;" width="45.9102" x="5" y="5"/><text fill="#000000" font-family="sans-serif" font-size="14" lengthAdjust="spacing" textLength="31.9102" x="12" y="24.9951">User</text></g><g class="participant participant-tail" data-participant="User"><rect fill="#E2E2F0" height="30.2969" rx="2.5" ry="2.5" style="stroke:#181818;stroke-width:0.5;" width="45.9102" x="5" y="230.0938"/><text fill="#000000" font-family="sans-serif" font-size="14" lengthAdjust="spacing" textLength="31.9102" x="12" y="250.0889">User</text></g><g class="participant participant-head" data-participant="Browser"><rect fill="#E2E2F0" height="30.2969" rx="2.5" ry="2.5" style="stroke:#181818;stroke-width:0.5;" width="71.0391" x="86.6343" y="5"/><text fill="#000000" font-family="sans-serif" font-size="14" lengthAdjust="spacing" textLength="57.0391" x="93.6343" y="24.9951">Browser</text></g><g class="participant participant-tail" data-participant="Browser"><rect fill="#E2E2F0" height="30.2969" rx="2.5" ry="2.5" style="stroke:#181818;stroke-width:0.5;" width="71.0391" x="86.6343" y="230.0938"/><text fill="#000000" font-family="sans-serif" font-size="14" lengthAdjust="spacing" textLength="57.0391" x="93.6343" y="250.0889">Browser</text></g><g class="participant participant-head" data-participant="Server"><rect fill="#E2E2F0" height="30.2969" rx="2.5" ry="2.5" style="stroke:#181818;stroke-width:0.5;" width="59.9102" x="199.3149" y="5"/><text fill="#000000" font-family="sans-serif" font-size="14" lengthAdjust="spacing" textLength="45.9102" x="206.3149" y="24.9951">Server</text></g><g class="participant participant-tail" data-participant="Server"><rect fill="#E2E2F0" height="30.2969" rx="2.5" ry="2.5" style="stroke:#181818;stroke-width:0.5;" width="59.9102" x="199.3149" y="230.0938"/><text fill="#000000" font-family="sans-serif" font-size="14" lengthAdjust="spacing" textLength="45.9102" x="206.3149" y="250.0889">Server</text></g><g class="participant participant-head" data-participant="Database"><rect fill="#E2E2F0" height="30.2969" rx="2.5" ry="2.5" style="stroke:#181818;stroke-width:0.5;" width="80.8008" x="269.2251" y="5"/><text fill="#000000" font-family="sans-serif" font-size="14" lengthAdjust="spacing" textLength="66.8008" x="276.2251" y="24.9951">Database</text></g><g class="participant participant-tail" data-participant="Database"><rect fill="#E2E2F0" height="30.2969" rx="2.5" ry="2.5" style="stroke:#181818;stroke-width:0.5;" width="80.8008" x="269.2251" y="230.0938"/><text fill="#000000" font-family="sans-serif" font-size="14" lengthAdjust="spacing" textLength="66.8008" x="276.2251" y="250.0889">Database</text></g><g class="message" data-participant-1="User" data-participant-2="Browser"><polygon fill="#181818" points="110.1538,63.4297,120.1538,67.4297,110.1538,71.4297,114.1538,67.4297" style="stroke:#181818;stroke-width:1;"/><line style="stroke:#181818;stroke-width:1;" x1="27.9551" x2="116.1538" y1="67.4297" y2="67.4297"/><text fill="#000000" font-family="sans-serif" font-size="13" lengthAdjust="spacing" textLength="69.0435" x="34.9551" y="62.3638">open page</text></g><g class="message" data-participant-1="Browser" data-participant-2="Server"><polygon fill="#181818" points="217.27,92.5625,227.27,96.5625,217.27,100.5625,221.27,96.5625" style="stroke:#181818;stroke-width:1;"/><line style="stroke:#181818;stroke-width:1;" x1="122.1538" x2="223.27" y1="96.5625" y2="96.5625"/><text fill="#000000" font-family="sans-serif" font-size="13" lengthAdjust="spacing" textLength="83.1162" x="129.1538" y="91.4966">request data</text></g><g class="message" data-participant-1="Server" data-participant-2="Database"><polygon fill="#181818" points="297.6255,121.6953,307.6255,125.6953,297.6255,129.6953,301.6255,125.6953" style="stroke:#181818;stroke-width:1;"/><line style="stroke:#181818;stroke-width:1;" x1="229.27" x2="303.6255" y1="125.6953" y2="125.6953"/><text fill="#000000" font-family="sans-serif" font-size="13" lengthAdjust="spacing" textLength="37.5273" x="236.27" y="120.6294">query</text></g><g class="message" data-participant-1="Database" data-participant-2="Server"><polygon fill="#181818" points="240.27,150.8281,230.27,154.8281,240.27,158.8281,236.27,154.8281" style="stroke:#181818;stroke-width:1;"/><line style="stroke:#181818;stroke-width:1;stroke-dasharray:2,2;" x1="234.27" x2="308.6255" y1="154.8281" y2="154.8281"/><text fill="#000000" font-family="sans-serif" font-size="13" lengthAdjust="spacing" textLength="37.064" x="246.27" y="149.7622">result</text></g><g class="message" data-participant-1="Server" data-participant-2="Browser"><polygon fill="#181818" points="133.1538,179.9609,123.1538,183.9609,133.1538,187.9609,129.1538,183.9609" style="stroke:#181818;stroke-width:1;"/><line style="stroke:#181818;stroke-width:1;stroke-dasharray:2,2;" x1="127.1538" x2="228.27" y1="183.9609" y2="183.9609"/><text fill="#000000" font-family="sans-serif" font-size="13" lengthAdjust="spacing" textLength="59.3315" x="139.1538" y="178.895">response</text></g><g class="message" data-participant-1="Browser" data-participant-2="User"><polygon fill="#181818" points="38.9551,209.0938,28.9551,213.0938,38.9551,217.0938,34.9551,213.0938" style="stroke:#181818;stroke-width:1;"/><line style="stroke:#181818;stroke-width:1;stroke-dasharray:2,2;" x1="32.9551" x2="121.1538" y1="213.0938" y2="213.0938"/><text fill="#000000" font-family="sans-serif" font-size="13" lengthAdjust="spacing" textLength="70.1987" x="44.9551" y="208.0278">show page</text></g><!--SRC=[LOwn3O0m30HxflW5M8220h41oW11M50W4km4nFOuW2BIMN_trWCmGeowHSVkJ6S3vsc3jpDLG8xL68YFHs3Q8qd0P8DDpWTKwJKPhP1Agl2LQCxgyeV4DVpRnGR5tcrIJb33l5WMTpuJRm00]--></g></svg>