<svg xmlns="http://www.w3.org/2000/svg" xmlns:xlink="http://www.w3.org/1999/xlink" contentStyleType="text/css" data-diagram-type="CLASS" height="128px" preserveAspectRatio="none" style="width:513px;height:128px;background:#FFFFFF;" version="1.1" viewBox="0 0 513 128" width="513px" zoomAndPan="magnify"><defs/><g><!--class User--><g class="entity" data-entity="User" data-source-line="1" data-uid="ent0002" id="entity_User"><rect fill="#F1F1F1" height="64.2969" rx="2.5" ry="2.5" style="stroke:#181818;stroke-width:0.5;" width="63.9102" x="7" y="57.28"/><ellipse cx="22" cy="73.28" fill="#ADD1B2" rx="11" ry="11" style="stroke:#181818;stroke-width:1;"/><path d="M24.9688,78.9206 Q24.3906,79.2175 23.75,79.3581 Q23.1094,79.5144 22.4063,79.5144 Q19.9063,79.5144 18.5781,77.8738 Q17.2656,76.2175 17.2656,73.0925 Q17.2656,69.9675 18.5781,68.3113 Q19.9063,66.655 22.4063,66.655 Q23.1094,66.655 23.75,66.8113 Q24.4063,66.9675 24.9688,67.2644 L24.9688,69.9831 Q24.3438,69.405 23.75,69.1394 Q23.1563,68.8581 22.5313,68.8581 Q21.1875,68.8581 20.5,69.9363 Q19.8125,70.9988 19.8125,73.0925 Q19.8125,75.1863 20.5,76.2644 Q21.1875,77.3269 22.5313,77.3269 Q23.1563,77.3269 23.75,77.0613 Q24.3438,76.78 24.9688,76.2019 L24.9688,78.9206 Z " fill="#000000"/><text fill="#000000" font-family="sans-serif" font-size="14" lengthAdjust="spacing" textLength="31.9102" x="36" y="78.1267">User</text><line style="stroke:#181818;stroke-width:0.5;" x1="8" x2="69.9102" y1="89.28" y2="89.28"/><text fill="#000000" font-family="sans-serif" font-size="14" lengthAdjust="spacing" textLength="31.9102" x="13" y="106.2751">User</text><line style="stroke:#181818;stroke-width:0.5;" x1="8" x2="69.9102" y1="113.5769" y2="113.5769"/></g><!--class Browser--><g class="entity" data-entity="Browser" data-source-line="2" data-uid="ent0003" id="entity_Browser"><rect fill="#F1F1F1" height="64.2969" rx="2.5" ry="2.5" style="stroke:#181818;stroke-width:0.5;" width="89.0391" x="198.5" y="57.28"/><ellipse cx="213.5" cy="73.28" fill="#ADD1B2" rx="11" ry="11" style="stroke:#181818;stroke-width:1;"/><path d="M216.4688,78.9206 Q215.8906,79.2175 215.25,79.3581 Q214.6094,79.5144 213.9063,79.5144 Q211.4063,79.5144 210.0781,77.8738 Q208.7656,76.2175 208.7656,73.0925 Q208.7656,69.9675 210.0781,68.3113 Q211.4063,66.655 213.9063,66.655 Q214.6094,66.655 215.25,66.8113 Q215.9063,66.9675 216.4688,67.2644 L216.4688,69.9831 Q215.8438,69.405 215.25,69.1394 Q214.6563,68.8581 214.0313,68.8581 Q212.6875,68.8581 212,69.9363 Q211.3125,70.9988 211.3125,73.0925 Q211.3125,75.1863 212,76.2644 Q212.6875,77.3269 214.0313,77.3269 Q214.6563,77.3269 215.25,77.0613 Q215.8438,76.78 216.4688,76.2019 L216.4688,78.9206 Z " fill="#000000"/><text fill="#000000" font-family="sans-serif" font-size="14" lengthAdjust="spacing" textLength="57.0391" x="227.5" y="78.1267">Browser</text><line style="stroke:#181818;stroke-width:0.5;" x1="199.5" x2="286.5391" y1="89.28" y2="89.28"/><text fill="#000000" font-family="sans-serif" font-size="14" lengthAdjust="spacing" textLength="57.0391" x="204.5" y="106.2751">Browser</text><line style="stroke:#181818;stroke-width:0.5;" x1="199.5" x2="286.5391" y1="113.5769" y2="113.5769"/></g><!--class Server--><g class="entity" data-entity="Server" data-source-line="3" data-uid="ent0004" id="entity_Server"><rect fill="#F1F1F1" height="64.2969" rx="2.5" ry="2.5" style="stroke:#181818;stroke-width:0.5;" width="77.9102" x="429" y="57.28"/><ellipse cx="444" cy="73.28" fill="#ADD1B2" rx="11" ry="11" style="stroke:#181818;stroke-width:1;"/><path d="M446.9688,78.9206 Q446.3906,79.2175 445.75,79.3581 Q445.1094,79.5144 444.4063,79.5144 Q441.9063,79.5144 440.5781,77.8738 Q439.2656,76.2175 439.2656,73.0925 Q439.2656,69.9675 440.5781,68.3113 Q441.9063,66.655 444.4063,66.655 Q445.1094,66.655 445.75,66.8113 Q446.4063,66.9675 446.9688,67.2644 L446.9688,69.9831 Q446.3438,69.405 445.75,69.1394 Q445.1563,68.8581 444.5313,68.8581 Q443.1875,68.8581 442.5,69.9363 Q441.8125,70.9988 441.8125,73.0925 Q441.8125,75.1863 442.5,76.2644 Q443.1875,77.3269 444.5313,77.3269 Q445.1563,77.3269 445.75,77.0613 Q446.3438,76.78 446.9688,76.2019 L446.9688,78.9206 Z " fill="#000000"/><text fill="#000000" font-family="sans-serif" font-size="14" lengthAdjust="spacing" textLength="45.9102" x="458" y="78.1267">Server</text><line style="stroke:#181818;stroke-width:0.5;" x1="430" x2="505.9102" y1="89.28" y2="89.28"/><text fill="#000000" font-family="sans-serif" font-size="14" lengthAdjust="spacing" textLength="45.9102" x="435" y="106.2751">Server</text><line style="stroke:#181818;stroke-width:0.5;" x1="430" x2="505.9102" y1="113.5769" y2="113.5769"/></g><!--link User to Browser--><g class="link" data-entity-1="User" data-entity-2="Browser" data-source-line="5" data-uid="lnk5" id="link_User_Browser"><path codeLine="5" d="M71.32,89.28 C105.59,89.28 153.95,89.28 192.31,89.28" fill="none" id="User-to-Browser" style="stroke:#181818;stroke-width:1;"/><polygon fill="#181818" points="198.31,89.28,189.31,85.28,193.31,89.28,189.31,93.28,198.31,89.28" style="stroke:#181818;stroke-width:1;"/><text fill="#000000" font-family="sans-serif" font-size="13" lengthAdjust="spacing" textLength="91.5903" x="89.25" y="82.3469">open page (1)</text></g><!--link Browser to Server--><g class="link" data-entity-1="Browser" data-entity-2="Server" data-source-line="6" data-uid="lnk6" id="link_Browser_Server"><path codeLine="6" d="M287.72,89.28 C328.99,89.28 383.65,89.28 423,89.28" fill="none" id="Browser-to-Server" style="stroke:#181818;stroke-width:1;"/><polygon fill="#181818" points="429,89.28,420,85.28,424,89.28,420,93.28,429,89.28" style="stroke:#181818;stroke-width:1;"/><text fill="#000000" font-family="sans-serif" font-size="13" lengthAdjust="spacing" textLength="105.6631" x="305.75" y="82.3469">request data (2)</text></g><!--link Server to User--><g class="link" data-entity-1="Server" data-entity-2="User" data-source-line="7" data-uid="lnk7" id="link_Server_User"><path codeLine="7" d="M428.8,67.65 C378.31,42.43 287.61,6 208.5,21.28 C158.53,30.93 109.9585,52.5106 76.6685,69.2806" fill="none" id="Server-to-User" style="stroke:#181818;stroke-width:1;"/><polygon fill="#181818" points="71.31,71.98,81.1473,71.5033,75.7754,69.7305,77.5482,64.3586,71.31,71.98" style="stroke:#181818;stroke-width:1;"/><text fill="#000000" font-family="sans-serif" font-size="13" lengthAdjust="spacing" textLength="81.8784" x="209.5" y="23.3469">response (3)</text></g><!--SRC=[Kr1G22rEBLAm0bDS2WeAJaNvvH0HA0ia69nQL0OMWp2uG69WVRfsI1ho2rBp50eIqrCLD0mraSq2geARK9HQM9fQNAAGabYIgA1Xf8baF50Pr355gSK5-Nd5G8ECDG40]--></g></svg>