<svg xmlns="http://www.w3.org/2000/svg" xmlns:xlink="http://www.w3.org/1999/xlink" contentStyleType="text/css" data-diagram-type="ACTIVITY" height="308px" preserveAspectRatio="none" style="width:305px;height:308px;background:#FFFFFF;" version="1.1" viewBox="0 0 305 308" width="305px" zoomAndPan="magnify"><defs/><g><ellipse cx="146.7793" cy="20" fill="#222222" rx="10" ry="10" style="stroke:#222222;stroke-width:1;"/><rect fill="#F1F1F1" height="33.9688" rx="12.5" ry="12.5" style="stroke:#181818;stroke-width:0.5;" width="192.7871" x="50.3857" y="50"/><text fill="#000000" font-family="sans-serif" font-size="12" lengthAdjust="spacing" textLength="172.7871" x="60.3857" y="71.1387">User enters login credentials</text><polygon fill="#F1F1F1" points="97.9534,103.9688,195.6052,103.9688,207.6052,115.9688,195.6052,127.9688,97.9534,127.9688,85.9534,115.9688,97.9534,103.9688" style="stroke:#181818;stroke-width:0.5;"/><text fill="#000000" font-family="sans-serif" font-size="11" lengthAdjust="spacing" textLength="97.6519" x="97.9534" y="119.7769">Valid credentials?</text><text fill="#000000" font-family="sans-serif" font-size="11" lengthAdjust="spacing" textLength="19.0083" x="66.9451" y="113.3745">yes</text><text fill="#000000" font-family="sans-serif" font-size="11" lengthAdjust="spacing" textLength="13.7017" x="207.6052" y="113.3745">no</text><rect fill="#F1F1F1" height="33.9688" rx="12.5" ry="12.5" style="stroke:#181818;stroke-width:0.5;" width="98.1465" x="21.8691" y="137.9688"/><text fill="#000000" font-family="sans-serif" font-size="12" lengthAdjust="spacing" textLength="78.1465" x="31.8691" y="159.1074">Grant access</text><rect fill="#F1F1F1" height="33.9688" rx="12.5" ry="12.5" style="stroke:#181818;stroke-width:0.5;" width="119.8848" x="11" y="191.9375"/><text fill="#000000" font-family="sans-serif" font-size="12" lengthAdjust="spacing" textLength="99.8848" x="21" y="213.0762">Show dashboard</text><rect fill="#F1F1F1" height="33.9688" rx="12.5" ry="12.5" style="stroke:#181818;stroke-width:0.5;" width="143.4629" x="150.8848" y="137.9688"/><text fill="#000000" font-family="sans-serif" font-size="12" lengthAdjust="spacing" textLength="123.4629" x="160.8848" y="159.1074">Show error message</text><polygon fill="#F1F1F1" points="146.7793,231.9063,158.7793,243.9063,146.7793,255.9063,134.7793,243.9063,146.7793,231.9063" style="stroke:#181818;stroke-width:0.5;"/><ellipse cx="146.7793" cy="286.9063" fill="none" rx="11" ry="11" style="stroke:#222222;stroke-width:1;"/><ellipse cx="146.7793" cy="286.9063" fill="#222222" rx="6" ry="6" style="stroke:#222222;stroke-width:1;"/><line style="stroke:#181818;stroke-width:1;" x1="146.7793" x2="146.7793" y1="30" y2="50"/><polygon fill="#181818" points="142.7793,40,146.7793,50,150.7793,40,146.7793,44" style="stroke:#181818;stroke-width:1;"/><line style="stroke:#181818;stroke-width:1;" x1="70.9424" x2="70.9424" y1="171.9375" y2="191.9375"/><polygon fill="#181818" points="66.9424,181.9375,70.9424,191.9375,74.9424,181.9375,70.9424,185.9375" style="stroke:#181818;stroke-width:1;"/><line style="stroke:#181818;stroke-width:1;" x1="85.9534" x2="70.9424" y1="115.9688" y2="115.9688"/><line style="stroke:#181818;stroke-width:1;" x1="70.9424" x2="70.9424" y1="115.9688" y2="137.9688"/><polygon fill="#181818" points="66.9424,127.9688,70.9424,137.9688,74.9424,127.9688,70.9424,131.9688" style="stroke:#181818;stroke-width:1;"/><line style="stroke:#181818;stroke-width:1;" x1="207.6052" x2="222.6162" y1="115.9688" y2="115.9688"/><line style="stroke:#181818;stroke-width:1;" x1="222.6162" x2="222.6162" y1="115.9688" y2="137.9688"/><polygon fill="#181818" points="218.6162,127.9688,222.6162,137.9688,226.6162,127.9688,222.6162,131.9688" style="stroke:#181818;stroke-width:1;"/><line style="stroke:#181818;stroke-width:1;" x1="70.9424" x2="70.9424" y1="225.9063" y2="243.9063"/><line style="stroke:#181818;stroke-width:1;" x1="70.9424" x2="134.7793" y1="243.9063" y2="243.9063"/><polygon fill="#181818" points="124.7793,239.9063,134.7793,243.9063,124.7793,247.9063,128.7793,243.9063" style="stroke:#181818;stroke-width:1;"/><line style="stroke:#181818;stroke-width:1;" x1="222.6162" x2="222.6162" y1="171.9375" y2="243.9063"/><line style="stroke:#181818;stroke-width:1;" x1="222.6162" x2="158.7793" y1="243.9063" y2="243.9063"/><polygon fill="#181818" points="168.7793,239.9063,158.7793,243.9063,168.7793,247.9063,164.7793,243.9063" style="stroke:#181818;stroke-width:1;"/><line style="stroke:#181818;stroke-width:1;" x1="146.7793" x2="146.7793" y1="83.9688" y2="103.9688"/><polygon fill="#181818" points="142.7793,93.9688,146.7793,103.9688,150.7793,93.9688,146.7793,97.9688" style="stroke:#181818;stroke-width:1;"/><line style="stroke:#181818;stroke-width:1;" x1="146.7793" x2="146.7793" y1="255.9063" y2="275.9063"/><polygon fill="#181818" points="142.7793,265.9063,146.7793,275.9063,150.7793,265.9063,146.7793,269.9063" style="stroke:#181818;stroke-width:1;"/><!--SRC=[JOmn3W8n30HxNh5byWKeA7a0Wjualaka42FR4kBt97VDTQlPsGLWJked0EU7iOAxingQhBKZAUS1AZMxJAKk24zgDH-RQuGNxWW_jZYjSNLJwWvAYMrV3dOlyaKcAoyXpHlbPepG9HuLLXN5UonfvLthkIupcCld3m00]--></g></svg>