<?plantuml 1.2026.2?><svg xmlns="http://www.w3.org/2000/svg" xmlns:xlink="http://www.w3.org/1999/xlink" contentStyleType="text/css" data-diagram-type="STATE" height="480px" preserveAspectRatio="none" style="width:108px;height:480px;background:#FFFFFF;" version="1.1" viewBox="0 0 108 480" width="108px" zoomAndPan="magnify"><defs/><g><g class="start_entity" data-qualified-name=".start." data-source-line="1" id="ent0002"><ellipse cx="51" cy="16" fill="#222222" rx="10" ry="10" style="stroke:#222222;stroke-width:1;"/></g><g class="entity" data-qualified-name="Draft" id="ent0003"><rect fill="#F1F1F1" height="50" rx="12.5" ry="12.5" style="stroke:#181818;stroke-width:0.5;" width="55.5332" x="23" y="87"/><line style="stroke:#181818;stroke-width:0.5;" x1="23" x2="78.5332" y1="113.2969" y2="113.2969"/><text fill="#000000" font-family="sans-serif" font-size="14" lengthAdjust="spacing" textLength="35.5332" x="33" y="104.9951">Draft</text></g><g class="entity" data-qualified-name="Published" id="ent0005"><rect fill="#F1F1F1" height="50" rx="12.5" ry="12.5" style="stroke:#181818;stroke-width:0.5;" width="87.6484" x="7" y="214"/><line style="stroke:#181818;stroke-width:0.5;" x1="7" x2="94.6484" y1="240.2969" y2="240.2969"/><text fill="#000000" font-family="sans-serif" font-size="14" lengthAdjust="spacing" textLength="67.6484" x="17" y="231.9951">Published</text></g><g class="entity" data-qualified-name="Archived" id="ent0007"><rect fill="#F1F1F1" height="50" rx="12.5" ry="12.5" style="stroke:#181818;stroke-width:0.5;" width="81.5781" x="10" y="341"/><line style="stroke:#181818;stroke-width:0.5;" x1="10" x2="91.5781" y1="367.2969" y2="367.2969"/><text fill="#000000" font-family="sans-serif" font-size="14" lengthAdjust="spacing" textLength="61.5781" x="20" y="358.9951">Archived</text></g><g class="end_entity" data-qualified-name=".end." data-source-line="4" id="ent0009"><ellipse cx="51" cy="463" fill="none" rx="11" ry="11" style="stroke:#222222;stroke-width:1;"/><ellipse cx="51" cy="463" fill="#222222" rx="6" ry="6" style="stroke:#222222;stroke-width:1;"/></g><!--link *start* to Draft--><g class="link" data-entity-1="ent0002" data-entity-2="ent0003" data-link-type="dependency" data-source-line="1" id="lnk4"><path d="M51,26.01 C51,39.89 51,60.97 51,80.84" fill="none" id="*start*-to-Draft" style="stroke:#181818;stroke-width:1;"/><polygon fill="#181818" points="51,86.84,55,77.84,51,81.84,47,77.84,51,86.84" style="stroke:#181818;stroke-width:1;"/></g><!--link Draft to Published--><g class="link" data-entity-1="ent0003" data-entity-2="ent0005" data-link-type="dependency" data-source-line="2" id="lnk6"><path d="M51,137.1 C51,159.24 51,185.86 51,207.97" fill="none" id="Draft-to-Published" style="stroke:#181818;stroke-width:1;"/><polygon fill="#181818" points="51,213.97,55,204.97,51,208.97,47,204.97,51,213.97" style="stroke:#181818;stroke-width:1;"/><text fill="#000000" font-family="sans-serif" font-size="13" lengthAdjust="spacing" textLength="46.979" x="52" y="180.0669">publish</text></g><!--link Published to Archived--><g class="link" data-entity-1="ent0005" data-entity-2="ent0007" data-link-type="dependency" data-source-line="3" id="lnk8"><path d="M51,264.1 C51,286.24 51,312.86 51,334.97" fill="none" id="Published-to-Archived" style="stroke:#181818;stroke-width:1;"/><polygon fill="#181818" points="51,340.97,55,331.97,51,335.97,47,331.97,51,340.97" style="stroke:#181818;stroke-width:1;"/><text fill="#000000" font-family="sans-serif" font-size="13" lengthAdjust="spacing" textLength="48.001" x="52" y="307.0669">archive</text></g><!--link Archived to *end*--><g class="link" data-entity-1="ent0007" data-entity-2="ent0009" data-link-type="dependency" data-source-line="4" id="lnk10"><path d="M51,391.46 C51,411.04 51,431.49 51,445.8" fill="none" id="Archived-to-*end*" style="stroke:#181818;stroke-width:1;"/><polygon fill="#181818" points="51,451.8,55,442.8,51,446.8,47,442.8,51,451.8" style="stroke:#181818;stroke-width:1;"/></g><?plantuml-src Kr1GYDQALT3LjLDmAKfCA-5IK80mm481fKavcSKPgIaALWe543P80K8OfCYnA3aZimoi9X721Ac1YuAK0Aq00000?></g></svg>