<?plantuml 1.2026.2?><svg xmlns="http://www.w3.org/2000/svg" xmlns:xlink="http://www.w3.org/1999/xlink" contentStyleType="text/css" data-diagram-type="DESCRIPTION" height="271px" preserveAspectRatio="none" style="width:149px;height:271px;background:#FFFFFF;" version="1.1" viewBox="0 0 149 271" width="149px" zoomAndPan="magnify"><defs/><g><!--entity US--><g class="entity" data-qualified-name="US" data-source-line="1" id="ent0002"><rect fill="#F1F1F1" height="46.2969" rx="2.5" ry="2.5" style="stroke:#181818;stroke-width:0.5;" width="128.1016" x="11" y="7"/><rect fill="#F1F1F1" height="10" style="stroke:#181818;stroke-width:0.5;" width="15" x="119.1016" y="12"/><rect fill="#F1F1F1" height="2" style="stroke:#181818;stroke-width:0.5;" width="4" x="117.1016" y="14"/><rect fill="#F1F1F1" height="2" style="stroke:#181818;stroke-width:0.5;" width="4" x="117.1016" y="18"/><text fill="#000000" font-family="sans-serif" font-size="14" lengthAdjust="spacing" textLength="88.1016" x="26" y="39.9951">User Service</text></g><!--entity OS--><g class="entity" data-qualified-name="OS" data-source-line="2" id="ent0003"><rect fill="#F1F1F1" height="46.2969" rx="2.5" ry="2.5" style="stroke:#181818;stroke-width:0.5;" width="136.2227" x="7" y="113"/><rect fill="#F1F1F1" height="10" style="stroke:#181818;stroke-width:0.5;" width="15" x="123.2227" y="118"/><rect fill="#F1F1F1" height="2" style="stroke:#181818;stroke-width:0.5;" width="4" x="121.2227" y="120"/><rect fill="#F1F1F1" height="2" style="stroke:#181818;stroke-width:0.5;" width="4" x="121.2227" y="124"/><text fill="#000000" font-family="sans-serif" font-size="14" lengthAdjust="spacing" textLength="96.2227" x="22" y="145.9951">Order Service</text></g><!--entity DB--><g class="entity" data-qualified-name="DB" data-source-line="3" id="ent0004"><rect fill="#F1F1F1" height="46.2969" rx="2.5" ry="2.5" style="stroke:#181818;stroke-width:0.5;" width="106.8008" x="21.5" y="219"/><rect fill="#F1F1F1" height="10" style="stroke:#181818;stroke-width:0.5;" width="15" x="108.3008" y="224"/><rect fill="#F1F1F1" height="2" style="stroke:#181818;stroke-width:0.5;" width="4" x="106.3008" y="226"/><rect fill="#F1F1F1" height="2" style="stroke:#181818;stroke-width:0.5;" width="4" x="106.3008" y="230"/><text fill="#000000" font-family="sans-serif" font-size="14" lengthAdjust="spacing" textLength="66.8008" x="36.5" y="251.9951">Database</text></g><!--link US to OS--><g class="link" data-entity-1="ent0002" data-entity-2="ent0003" data-link-type="dependency" data-source-line="5" id="lnk5"><path d="M75,53.06 C75,70.7 75,89.34 75,106.98" fill="none" id="US-to-OS" style="stroke:#181818;stroke-width:1;"/><polygon fill="#181818" points="75,112.98,79,103.98,75,107.98,71,103.98,75,112.98" style="stroke:#181818;stroke-width:1;"/></g><!--link OS to DB--><g class="link" data-entity-1="ent0003" data-entity-2="ent0004" data-link-type="dependency" data-source-line="6" id="lnk6"><path d="M75,159.06 C75,176.7 75,195.34 75,212.98" fill="none" id="OS-to-DB" style="stroke:#181818;stroke-width:1;"/><polygon fill="#181818" points="75,218.98,79,209.98,75,213.98,71,209.98,75,218.98" style="stroke:#181818;stroke-width:1;"/></g><?plantuml-src Kr1GICxFBSZFIyqhKL0ABKujKWXEBIhBJ4vLKaWiLWWDvb90KU5Vb8Acn1zTYKjYIM9IOZ54riM92oGT6goWgsi7LUiFuRWu0G00?></g></svg>