<svg xmlns="http://www.w3.org/2000/svg" xmlns:xlink="http://www.w3.org/1999/xlink" contentStyleType="text/css" data-diagram-type="CLASS" height="235px" preserveAspectRatio="none" style="width:182px;height:235px;background:#FFFFFF;" version="1.1" viewBox="0 0 182 235" width="182px" zoomAndPan="magnify"><defs/><g><!--cluster User Management--><g class="cluster" data-entity="User Management" data-source-line="1" data-uid="ent0002" id="cluster_User Management"><path d="M13.5,6 L158.5264,6 A3.75,3.75 0 0 1 161.0264,8.5 L168.0264,28.2969 L168.5,28.2969 A2.5,2.5 0 0 1 171,30.7969 L171,102.5 A2.5,2.5 0 0 1 168.5,105 L13.5,105 A2.5,2.5 0 0 1 11,102.5 L11,8.5 A2.5,2.5 0 0 1 13.5,6" fill="none" style="stroke:#000000;stroke-width:1.5;"/><line style="stroke:#000000;stroke-width:1.5;" x1="11" x2="168.0264" y1="28.2969" y2="28.2969"/><text fill="#000000" font-family="sans-serif" font-size="14" font-weight="bold" lengthAdjust="spacing" textLength="144.0264" x="15" y="20.9951">User Management</text></g><!--cluster Order Management--><g class="cluster" data-entity="Order Management" data-source-line="5" data-uid="ent0004" id="cluster_Order Management"><path d="M8.5,129 L162.6523,129 A3.75,3.75 0 0 1 165.1523,131.5 L172.1523,151.2969 L172.5,151.2969 A2.5,2.5 0 0 1 175,153.7969 L175,225.5 A2.5,2.5 0 0 1 172.5,228 L8.5,228 A2.5,2.5 0 0 1 6,225.5 L6,131.5 A2.5,2.5 0 0 1 8.5,129" fill="none" style="stroke:#000000;stroke-width:1.5;"/><line style="stroke:#000000;stroke-width:1.5;" x1="6" x2="172.1523" y1="151.2969" y2="151.2969"/><text fill="#000000" font-family="sans-serif" font-size="14" font-weight="bold" lengthAdjust="spacing" textLength="153.1523" x="10" y="143.9951">Order Management</text></g><!--class User--><g class="entity" data-entity="User" data-source-line="2" data-uid="ent0003" id="entity_User"><rect fill="#F1F1F1" height="48" rx="2.5" ry="2.5" style="stroke:#181818;stroke-width:0.5;" width="63.9102" x="29" y="41"/><ellipse cx="44" cy="57" fill="#ADD1B2" rx="11" ry="11" style="stroke:#181818;stroke-width:1;"/><path d="M46.9688,62.6406 Q46.3906,62.9375 45.75,63.0781 Q45.1094,63.2344 44.4063,63.2344 Q41.9063,63.2344 40.5781,61.5938 Q39.2656,59.9375 39.2656,56.8125 Q39.2656,53.6875 40.5781,52.0313 Q41.9063,50.375 44.4063,50.375 Q45.1094,50.375 45.75,50.5313 Q46.4063,50.6875 46.9688,50.9844 L46.9688,53.7031 Q46.3438,53.125 45.75,52.8594 Q45.1563,52.5781 44.5313,52.5781 Q43.1875,52.5781 42.5,53.6563 Q41.8125,54.7188 41.8125,56.8125 Q41.8125,58.9063 42.5,59.9844 Q43.1875,61.0469 44.5313,61.0469 Q45.1563,61.0469 45.75,60.7813 Q46.3438,60.5 46.9688,59.9219 L46.9688,62.6406 Z " fill="#000000"/><text fill="#000000" font-family="sans-serif" font-size="14" lengthAdjust="spacing" textLength="31.9102" x="58" y="61.8467">User</text><line style="stroke:#181818;stroke-width:0.5;" x1="30" x2="91.9102" y1="73" y2="73"/><line style="stroke:#181818;stroke-width:0.5;" x1="30" x2="91.9102" y1="81" y2="81"/></g><!--class Order--><g class="entity" data-entity="Order" data-source-line="6" data-uid="ent0005" id="entity_Order"><rect fill="#F1F1F1" height="48" rx="2.5" ry="2.5" style="stroke:#181818;stroke-width:0.5;" width="72.0313" x="25" y="164"/><ellipse cx="40" cy="180" fill="#ADD1B2" rx="11" ry="11" style="stroke:#181818;stroke-width:1;"/><path d="M42.9688,185.6406 Q42.3906,185.9375 41.75,186.0781 Q41.1094,186.2344 40.4063,186.2344 Q37.9063,186.2344 36.5781,184.5938 Q35.2656,182.9375 35.2656,179.8125 Q35.2656,176.6875 36.5781,175.0313 Q37.9063,173.375 40.4063,173.375 Q41.1094,173.375 41.75,173.5313 Q42.4063,173.6875 42.9688,173.9844 L42.9688,176.7031 Q42.3438,176.125 41.75,175.8594 Q41.1563,175.5781 40.5313,175.5781 Q39.1875,175.5781 38.5,176.6563 Q37.8125,177.7188 37.8125,179.8125 Q37.8125,181.9063 38.5,182.9844 Q39.1875,184.0469 40.5313,184.0469 Q41.1563,184.0469 41.75,183.7813 Q42.3438,183.5 42.9688,182.9219 L42.9688,185.6406 Z " fill="#000000"/><text fill="#000000" font-family="sans-serif" font-size="14" lengthAdjust="spacing" textLength="40.0313" x="54" y="184.8467">Order</text><line style="stroke:#181818;stroke-width:0.5;" x1="26" x2="96.0313" y1="196" y2="196"/><line style="stroke:#181818;stroke-width:0.5;" x1="26" x2="96.0313" y1="204" y2="204"/></g><!--link User to Order--><g class="link" data-entity-1="User" data-entity-2="Order" data-source-line="9" data-uid="lnk6" id="link_User_Order"><path codeLine="9" d="M61,89.04 C61,110.44 61,136.13 61,157.63" fill="none" id="User-to-Order" style="stroke:#181818;stroke-width:1;"/><polygon fill="#181818" points="61,163.63,65,154.63,61,158.63,57,154.63,61,163.63" style="stroke:#181818;stroke-width:1;"/></g><!--SRC=[Kr1GA4XCpavCJrLG2YrEBLBmJSm3Sd9JyqgK5Agv540WEIUnk5W190lYrtA1IBWc_w8KVBh0qWXjO2jqTUqWuW00]--></g></svg>