<svg xmlns="http://www.w3.org/2000/svg" xmlns:xlink="http://www.w3.org/1999/xlink" contentStyleType="text/css" data-diagram-type="STATE" height="480px" preserveAspectRatio="none" style="width:108px;height:480px;background:#FFFFFF;" version="1.1" viewBox="0 0 108 480" width="108px" zoomAndPan="magnify"><defs/><g><ellipse cx="51" cy="16" fill="#222222" rx="10" ry="10" style="stroke:#222222;stroke-width:1;"/><g id="Draft"><rect fill="#F1F1F1" height="50" rx="12.5" ry="12.5" style="stroke:#181818;stroke-width:0.5;" width="55.5332" x="23" y="87"/><line style="stroke:#181818;stroke-width:0.5;" x1="23" x2="78.5332" y1="113.2969" y2="113.2969"/><text fill="#000000" font-family="sans-serif" font-size="14" lengthAdjust="spacing" textLength="35.5332" x="33" y="104.9951">Draft</text></g><g id="Published"><rect fill="#F1F1F1" height="50" rx="12.5" ry="12.5" style="stroke:#181818;stroke-width:0.5;" width="87.6484" x="7" y="214"/><line style="stroke:#181818;stroke-width:0.5;" x1="7" x2="94.6484" y1="240.2969" y2="240.2969"/><text fill="#000000" font-family="sans-serif" font-size="14" lengthAdjust="spacing" textLength="67.6484" x="17" y="231.9951">Published</text></g><g id="Archived"><rect fill="#F1F1F1" height="50" rx="12.5" ry="12.5" style="stroke:#181818;stroke-width:0.5;" width="81.5781" x="10" y="341"/><line style="stroke:#181818;stroke-width:0.5;" x1="10" x2="91.5781" y1="367.2969" y2="367.2969"/><text fill="#000000" font-family="sans-serif" font-size="14" lengthAdjust="spacing" textLength="61.5781" x="20" y="358.9951">Archived</text></g><ellipse cx="51" cy="463" fill="none" rx="11" ry="11" style="stroke:#222222;stroke-width:1;"/><ellipse cx="51" cy="463" fill="#222222" rx="6" ry="6" style="stroke:#222222;stroke-width:1;"/><!--link *start* to Draft--><g class="link" data-entity-1=".start." data-entity-2="Draft" data-source-line="1" data-uid="lnk4" id="link_.start._Draft"><path d="M51,26.01 C51,39.89 51,60.97 51,80.84" fill="none" id="*start*-to-Draft" style="stroke:#181818;stroke-width:1;"/><polygon fill="#181818" points="51,86.84,55,77.84,51,81.84,47,77.84,51,86.84" style="stroke:#181818;stroke-width:1;"/></g><!--link Draft to Published--><g class="link" data-entity-1="Draft" data-entity-2="Published" data-source-line="2" data-uid="lnk6" id="link_Draft_Published"><path d="M51,137.1 C51,159.24 51,185.86 51,207.97" fill="none" id="Draft-to-Published" style="stroke:#181818;stroke-width:1;"/><polygon fill="#181818" points="51,213.97,55,204.97,51,208.97,47,204.97,51,213.97" style="stroke:#181818;stroke-width:1;"/><text fill="#000000" font-family="sans-serif" font-size="13" lengthAdjust="spacing" textLength="46.979" x="52" y="180.0669">publish</text></g><!--link Published to Archived--><g class="link" data-entity-1="Published" data-entity-2="Archived" data-source-line="3" data-uid="lnk8" id="link_Published_Archived"><path d="M51,264.1 C51,286.24 51,312.86 51,334.97" fill="none" id="Published-to-Archived" style="stroke:#181818;stroke-width:1;"/><polygon fill="#181818" points="51,340.97,55,331.97,51,335.97,47,331.97,51,340.97" style="stroke:#181818;stroke-width:1;"/><text fill="#000000" font-family="sans-serif" font-size="13" lengthAdjust="spacing" textLength="48.001" x="52" y="307.0669">archive</text></g><!--link Archived to *end*--><g class="link" data-entity-1="Archived" data-entity-2=".end." data-source-line="4" data-uid="lnk10" id="link_Archived_.end."><path d="M51,391.46 C51,411.04 51,431.49 51,445.8" fill="none" id="Archived-to-*end*" style="stroke:#181818;stroke-width:1;"/><polygon fill="#181818" points="51,451.8,55,442.8,51,446.8,47,442.8,51,451.8" style="stroke:#181818;stroke-width:1;"/></g><!--SRC=[Kr1GYDQALT3LjLDmAKfCA-5IK80mm481fKavcSKPgIaALWe543P80K8OfCYnA3aZimoi9X721Ac1YuAK0Aq00000]--></g></svg>