<svg xmlns="http://www.w3.org/2000/svg" xmlns:xlink="http://www.w3.org/1999/xlink" contentStyleType="text/css" data-diagram-type="CLASS" height="284px" preserveAspectRatio="none" style="width:206px;height:284px;background:#FFFFFF;" version="1.1" viewBox="0 0 206 284" width="206px" zoomAndPan="magnify"><defs/><g><!--class User--><g class="entity" data-entity="User" data-source-line="1" data-uid="ent0002" id="entity_User"><rect fill="#F1F1F1" height="96.8906" rx="2.5" ry="2.5" style="stroke:#181818;stroke-width:0.5;" width="116.6514" x="44.5" y="7"/><ellipse cx="83.2335" cy="23" fill="#ADD1B2" rx="11" ry="11" style="stroke:#181818;stroke-width:1;"/><path d="M86.2023,28.6406 Q85.6242,28.9375 84.9835,29.0781 Q84.3429,29.2344 83.6398,29.2344 Q81.1398,29.2344 79.8117,27.5938 Q78.4992,25.9375 78.4992,22.8125 Q78.4992,19.6875 79.8117,18.0313 Q81.1398,16.375 83.6398,16.375 Q84.3429,16.375 84.9835,16.5313 Q85.6398,16.6875 86.2023,16.9844 L86.2023,19.7031 Q85.5773,19.125 84.9835,18.8594 Q84.3898,18.5781 83.7648,18.5781 Q82.421,18.5781 81.7335,19.6563 Q81.046,20.7188 81.046,22.8125 Q81.046,24.9063 81.7335,25.9844 Q82.421,27.0469 83.7648,27.0469 Q84.3898,27.0469 84.9835,26.7813 Q85.5773,26.5 86.2023,25.9219 L86.2023,28.6406 Z " fill="#000000"/><text fill="#000000" font-family="sans-serif" font-size="14" lengthAdjust="spacing" textLength="31.9102" x="102.5077" y="27.8467">User</text><line style="stroke:#181818;stroke-width:0.5;" x1="45.5" x2="160.1514" y1="39" y2="39"/><rect fill="none" height="6" style="stroke:#C82930;stroke-width:1;" width="6" x="52.5" y="49.6484"/><text fill="#000000" font-family="sans-serif" font-size="14" lengthAdjust="spacing" textLength="90.6514" x="64.5" y="55.9951">name: String</text><rect fill="none" height="6" style="stroke:#C82930;stroke-width:1;" width="6" x="52.5" y="65.9453"/><text fill="#000000" font-family="sans-serif" font-size="14" lengthAdjust="spacing" textLength="89.5576" x="64.5" y="72.292">email: String</text><line style="stroke:#181818;stroke-width:0.5;" x1="45.5" x2="160.1514" y1="79.5938" y2="79.5938"/><ellipse cx="55.5" cy="93.2422" fill="#84BE84" rx="3" ry="3" style="stroke:#038048;stroke-width:1;"/><text fill="#000000" font-family="sans-serif" font-size="14" lengthAdjust="spacing" textLength="83.8223" x="64.5" y="96.5889">login(): void</text></g><!--class Order--><g class="entity" data-entity="Order" data-source-line="7" data-uid="ent0003" id="entity_Order"><rect fill="#F1F1F1" height="96.8906" rx="2.5" ry="2.5" style="stroke:#181818;stroke-width:0.5;" width="192.1885" x="7" y="181"/><ellipse cx="78.8286" cy="197" fill="#ADD1B2" rx="11" ry="11" style="stroke:#181818;stroke-width:1;"/><path d="M81.7974,202.6406 Q81.2192,202.9375 80.5786,203.0781 Q79.938,203.2344 79.2349,203.2344 Q76.7349,203.2344 75.4067,201.5938 Q74.0942,199.9375 74.0942,196.8125 Q74.0942,193.6875 75.4067,192.0313 Q76.7349,190.375 79.2349,190.375 Q79.938,190.375 80.5786,190.5313 Q81.2349,190.6875 81.7974,190.9844 L81.7974,193.7031 Q81.1724,193.125 80.5786,192.8594 Q79.9849,192.5781 79.3599,192.5781 Q78.0161,192.5781 77.3286,193.6563 Q76.6411,194.7188 76.6411,196.8125 Q76.6411,198.9063 77.3286,199.9844 Q78.0161,201.0469 79.3599,201.0469 Q79.9849,201.0469 80.5786,200.7813 Q81.1724,200.5 81.7974,199.9219 L81.7974,202.6406 Z " fill="#000000"/><text fill="#000000" font-family="sans-serif" font-size="14" lengthAdjust="spacing" textLength="40.0313" x="99.3286" y="201.8467">Order</text><line style="stroke:#181818;stroke-width:0.5;" x1="8" x2="198.1885" y1="213" y2="213"/><rect fill="none" height="6" style="stroke:#C82930;stroke-width:1;" width="6" x="15" y="223.6484"/><text fill="#000000" font-family="sans-serif" font-size="14" lengthAdjust="spacing" textLength="40.1953" x="27" y="229.9951">id: int</text><rect fill="none" height="6" style="stroke:#C82930;stroke-width:1;" width="6" x="15" y="239.9453"/><text fill="#000000" font-family="sans-serif" font-size="14" lengthAdjust="spacing" textLength="74.1973" x="27" y="246.292">date: Date</text><line style="stroke:#181818;stroke-width:0.5;" x1="8" x2="198.1885" y1="253.5938" y2="253.5938"/><ellipse cx="18" cy="267.2422" fill="#84BE84" rx="3" ry="3" style="stroke:#038048;stroke-width:1;"/><text fill="#000000" font-family="sans-serif" font-size="14" lengthAdjust="spacing" textLength="166.1885" x="27" y="270.5889">calculateTotal(): double</text></g><!--link User to Order--><g class="link" data-entity-1="User" data-entity-2="Order" data-source-line="13" data-uid="lnk4" id="link_User_Order"><path codeLine="13" d="M103,104.41 C103,128.27 103,151.02 103,174.85" fill="none" id="User-to-Order" style="stroke:#181818;stroke-width:1;"/><polygon fill="#181818" points="103,180.85,107,171.85,103,175.85,99,171.85,103,180.85" style="stroke:#181818;stroke-width:1;"/><text fill="#000000" font-family="sans-serif" font-size="13" lengthAdjust="spacing" textLength="41.7485" x="104" y="147.0669">places</text></g><!--SRC=[LOun3i8m40Jxl69B8kGFkA1AJm4yuB1FqKaN6zaE3ShViG4Bk6AbdMBs03Ybd779dF0OqCuWqC8Mfv8ap9tnGgB_S0-DiuJTQ76FuXlSXfPlvp7vNwbu2mcbLq-bRamrkyoHkbKhECT2sgm-hbVbh_VrfJ67ZzhYfkGuFm40]--></g></svg>