<svg xmlns="http://www.w3.org/2000/svg" xmlns:xlink="http://www.w3.org/1999/xlink" contentStyleType="text/css" data-diagram-type="DESCRIPTION" height="176px" preserveAspectRatio="none" style="width:377px;height:176px;background:#FFFFFF;" version="1.1" viewBox="0 0 377 176" width="377px" zoomAndPan="magnify"><defs/><g><!--entity User--><g class="entity" data-entity="User" data-source-line="1" data-uid="ent0002" id="entity_User"><ellipse cx="161.9551" cy="14" fill="#F1F1F1" rx="8" ry="8" style="stroke:#181818;stroke-width:0.5;"/><path d="M161.9551,22 L161.9551,49 M148.9551,30 L174.9551,30 M161.9551,49 L148.9551,64 M161.9551,49 L174.9551,64" fill="none" style="stroke:#181818;stroke-width:0.5;"/><text fill="#000000" font-family="sans-serif" font-size="14" lengthAdjust="spacing" textLength="31.9102" x="146" y="78.4951">User</text></g><!--entity UC1--><g class="entity" data-entity="UC1" data-source-line="2" data-uid="ent0003" id="entity_UC1"><ellipse cx="35.8804" cy="156.0236" fill="#F1F1F1" rx="29.8804" ry="14.5236" style="stroke:#181818;stroke-width:0.5;"/><text fill="#000000" font-family="sans-serif" font-size="14" lengthAdjust="spacing" textLength="38.0146" x="16.8731" y="160.6721">Login</text></g><!--entity UC2--><g class="entity" data-entity="UC2" data-source-line="3" data-uid="ent0004" id="entity_UC2"><ellipse cx="161.824" cy="156.0648" fill="#F1F1F1" rx="60.824" ry="14.5648" style="stroke:#181818;stroke-width:0.5;"/><text fill="#000000" font-family="sans-serif" font-size="14" lengthAdjust="spacing" textLength="82.0654" x="120.7912" y="160.7132">View Profile</text></g><!--entity UC3--><g class="entity" data-entity="UC3" data-source-line="4" data-uid="ent0005" id="entity_UC3"><ellipse cx="314.9901" cy="156.0236" fill="#F1F1F1" rx="56.4901" ry="14.5236" style="stroke:#181818;stroke-width:0.5;"/><text fill="#000000" font-family="sans-serif" font-size="14" lengthAdjust="spacing" textLength="75.6465" x="277.1669" y="160.6721">Edit Profile</text></g><!--link User to UC1--><g class="link" data-entity-1="User" data-entity-2="UC1" data-source-line="6" data-uid="lnk6" id="link_User_UC1"><path d="M145.79,58.72 C120.79,80.64 77.8113,118.3342 54.3413,138.9142" fill="none" id="User-to-UC1" style="stroke:#181818;stroke-width:1;"/><polygon fill="#181818" points="49.83,142.87,59.2341,139.9438,53.5894,139.5735,53.9597,133.9288,49.83,142.87" style="stroke:#181818;stroke-width:1;"/></g><!--link User to UC2--><g class="link" data-entity-1="User" data-entity-2="UC2" data-source-line="7" data-uid="lnk7" id="link_User_UC2"><path d="M162,81.6 C162,102.17 162,120.51 162,135.34" fill="none" id="User-to-UC2" style="stroke:#181818;stroke-width:1;"/><polygon fill="#181818" points="162,141.34,166,132.34,162,136.34,158,132.34,162,141.34" style="stroke:#181818;stroke-width:1;"/></g><!--link User to UC3--><g class="link" data-entity-1="User" data-entity-2="UC3" data-source-line="8" data-uid="lnk8" id="link_User_UC3"><path d="M178.08,56.12 C206.93,76.95 262.3864,116.9964 292.3964,138.6764" fill="none" id="User-to-UC3" style="stroke:#181818;stroke-width:1;"/><polygon fill="#181818" points="297.26,142.19,292.307,133.6772,293.207,139.262,287.6222,140.162,297.26,142.19" style="stroke:#181818;stroke-width:1;"/></g><!--SRC=[Kr1GI4mkoIzI22rEBU9IK50eBKvDJYnELL3ooK_Fp5DII2nM27KsH949oqmjLmWeoa_Bp4c5AZ12KU2Qabc2fi2O2wG2P8c2hguTp4WalX4QtnW0]--></g></svg>