<svg xmlns="http://www.w3.org/2000/svg" xmlns:xlink="http://www.w3.org/1999/xlink" contentStyleType="text/css" data-diagram-type="DESCRIPTION" height="377px" preserveAspectRatio="none" style="width:208px;height:377px;background:#FFFFFF;" version="1.1" viewBox="0 0 208 377" width="208px" zoomAndPan="magnify"><defs/><g><!--cluster Web Server--><g class="cluster" data-entity="Web Server" data-source-line="1" data-uid="ent0002" id="cluster_Web Server"><polygon fill="none" points="24,16,34,6,191,6,191,98,181,108,24,108,24,16" style="stroke:#181818;stroke-width:1;"/><line style="stroke:#181818;stroke-width:1;" x1="181" x2="191" y1="16" y2="6"/><line style="stroke:#181818;stroke-width:1;" x1="24" x2="181" y1="16" y2="16"/><line style="stroke:#181818;stroke-width:1;" x1="181" x2="181" y1="16" y2="108"/><text fill="#000000" font-family="sans-serif" font-size="14" font-weight="bold" lengthAdjust="spacing" textLength="91.8408" x="57.5796" y="31.9951">Web Server</text></g><!--cluster App Server--><g class="cluster" data-entity="App Server" data-source-line="5" data-uid="ent0004" id="cluster_App Server"><polygon fill="none" points="26,142,36,132,189,132,189,224,179,234,26,234,26,142" style="stroke:#181818;stroke-width:1;"/><line style="stroke:#181818;stroke-width:1;" x1="179" x2="189" y1="142" y2="132"/><line style="stroke:#181818;stroke-width:1;" x1="26" x2="179" y1="142" y2="142"/><line style="stroke:#181818;stroke-width:1;" x1="179" x2="179" y1="142" y2="234"/><text fill="#000000" font-family="sans-serif" font-size="14" font-weight="bold" lengthAdjust="spacing" textLength="87.7598" x="59.6201" y="157.9951">App Server</text></g><!--cluster DB Server--><g class="cluster" data-entity="DB Server" data-source-line="9" data-uid="ent0006" id="cluster_DB Server"><polygon fill="none" points="16,268,26,258,171,258,171,350,161,360,16,360,16,268" style="stroke:#181818;stroke-width:1;"/><line style="stroke:#181818;stroke-width:1;" x1="161" x2="171" y1="268" y2="258"/><line style="stroke:#181818;stroke-width:1;" x1="16" x2="161" y1="268" y2="268"/><line style="stroke:#181818;stroke-width:1;" x1="161" x2="161" y1="268" y2="360"/><text fill="#000000" font-family="sans-serif" font-size="14" font-weight="bold" lengthAdjust="spacing" textLength="79.1738" x="49.9131" y="283.9951">DB Server</text></g><!--entity Frontend--><g class="entity" data-entity="Frontend" data-source-line="2" data-uid="ent0003" id="entity_Frontend"><rect fill="#F1F1F1" height="46.2969" rx="2.5" ry="2.5" style="stroke:#181818;stroke-width:0.5;" width="103.1094" x="41.5" y="46"/><rect fill="#F1F1F1" height="10" style="stroke:#181818;stroke-width:0.5;" width="15" x="124.6094" y="51"/><rect fill="#F1F1F1" height="2" style="stroke:#181818;stroke-width:0.5;" width="4" x="122.6094" y="53"/><rect fill="#F1F1F1" height="2" style="stroke:#181818;stroke-width:0.5;" width="4" x="122.6094" y="57"/><text fill="#000000" font-family="sans-serif" font-size="14" lengthAdjust="spacing" textLength="63.1094" x="56.5" y="78.9951">Frontend</text></g><!--entity Backend--><g class="entity" data-entity="Backend" data-source-line="6" data-uid="ent0005" id="entity_Backend"><rect fill="#F1F1F1" height="46.2969" rx="2.5" ry="2.5" style="stroke:#181818;stroke-width:0.5;" width="100.3613" x="43" y="172"/><rect fill="#F1F1F1" height="10" style="stroke:#181818;stroke-width:0.5;" width="15" x="123.3613" y="177"/><rect fill="#F1F1F1" height="2" style="stroke:#181818;stroke-width:0.5;" width="4" x="121.3613" y="179"/><rect fill="#F1F1F1" height="2" style="stroke:#181818;stroke-width:0.5;" width="4" x="121.3613" y="183"/><text fill="#000000" font-family="sans-serif" font-size="14" lengthAdjust="spacing" textLength="60.3613" x="58" y="204.9951">Backend</text></g><!--entity Database--><g class="entity" data-entity="Database" data-source-line="10" data-uid="ent0007" id="entity_Database"><rect fill="#F1F1F1" height="46.2969" rx="2.5" ry="2.5" style="stroke:#181818;stroke-width:0.5;" width="106.8008" x="39.5" y="298"/><rect fill="#F1F1F1" height="10" style="stroke:#181818;stroke-width:0.5;" width="15" x="126.3008" y="303"/><rect fill="#F1F1F1" height="2" style="stroke:#181818;stroke-width:0.5;" width="4" x="124.3008" y="305"/><rect fill="#F1F1F1" height="2" style="stroke:#181818;stroke-width:0.5;" width="4" x="124.3008" y="309"/><text fill="#000000" font-family="sans-serif" font-size="14" lengthAdjust="spacing" textLength="66.8008" x="54.5" y="330.9951">Database</text></g><!--link Frontend to Backend--><g class="link" data-entity-1="Frontend" data-entity-2="Backend" data-source-line="13" data-uid="lnk8" id="link_Frontend_Backend"><path d="M93,92.17 C93,114.6 93,143.09 93,165.61" fill="none" id="Frontend-to-Backend" style="stroke:#181818;stroke-width:1;"/><polygon fill="#181818" points="93,171.61,97,162.61,93,166.61,89,162.61,93,171.61" style="stroke:#181818;stroke-width:1;"/></g><!--link Backend to Database--><g class="link" data-entity-1="Backend" data-entity-2="Database" data-source-line="14" data-uid="lnk9" id="link_Backend_Database"><path d="M93,218.17 C93,240.6 93,269.09 93,291.61" fill="none" id="Backend-to-Database" style="stroke:#181818;stroke-width:1;"/><polygon fill="#181818" points="93,297.61,97,288.61,93,292.61,89,288.61,93,297.61" style="stroke:#181818;stroke-width:1;"/></g><!--SRC=[Kr1GoCjFILLG2azDKWXEBIfBBL9IgEPI087a_Do2_BpKl1859RUY_BoIrBmK9P1CBHU8X6XpB2Z0eyqfCJaRcouN9poQN19B4fCIYrEHTC6iLz3LjLE06WeIXpB1mZ1j0000]--></g></svg>