<svg xmlns="http://www.w3.org/2000/svg" xmlns:xlink="http://www.w3.org/1999/xlink" contentStyleType="text/css" data-diagram-type="CLASS" height="458px" preserveAspectRatio="none" style="width:140px;height:458px;background:#FFFFFF;" version="1.1" viewBox="0 0 140 458" width="140px" zoomAndPan="magnify"><defs/><g><!--class User--><g class="entity" data-entity="User" data-source-line="1" data-uid="ent0002" id="entity_User"><rect fill="#F1F1F1" height="113.1875" rx="2.5" ry="2.5" style="stroke:#181818;stroke-width:0.5;" width="111.9346" x="14" y="7"/><ellipse cx="50.611" cy="23" fill="#ADD1B2" rx="11" ry="11" style="stroke:#181818;stroke-width:1;"/><path d="M53.5797,28.6406 Q53.0016,28.9375 52.361,29.0781 Q51.7204,29.2344 51.0172,29.2344 Q48.5172,29.2344 47.1891,27.5938 Q45.8766,25.9375 45.8766,22.8125 Q45.8766,19.6875 47.1891,18.0313 Q48.5172,16.375 51.0172,16.375 Q51.7204,16.375 52.361,16.5313 Q53.0172,16.6875 53.5797,16.9844 L53.5797,19.7031 Q52.9547,19.125 52.361,18.8594 Q51.7672,18.5781 51.1422,18.5781 Q49.7985,18.5781 49.111,19.6563 Q48.4235,20.7188 48.4235,22.8125 Q48.4235,24.9063 49.111,25.9844 Q49.7985,27.0469 51.1422,27.0469 Q51.7672,27.0469 52.361,26.7813 Q52.9547,26.5 53.5797,25.9219 L53.5797,28.6406 Z " fill="#000000"/><text fill="#000000" font-family="sans-serif" font-size="14" lengthAdjust="spacing" textLength="31.9102" x="69.4134" y="27.8467">User</text><line style="stroke:#181818;stroke-width:0.5;" x1="15" x2="124.9346" y1="39" y2="39"/><ellipse cx="25" cy="52.6484" fill="none" rx="3" ry="3" style="stroke:#038048;stroke-width:1;"/><text fill="#000000" font-family="sans-serif" font-size="14" lengthAdjust="spacing" textLength="85.9346" x="34" y="55.9951">String name</text><ellipse cx="25" cy="68.9453" fill="none" rx="3" ry="3" style="stroke:#038048;stroke-width:1;"/><text fill="#000000" font-family="sans-serif" font-size="14" lengthAdjust="spacing" textLength="84.8408" x="34" y="72.292">String email</text><line style="stroke:#181818;stroke-width:0.5;" x1="15" x2="124.9346" y1="79.5938" y2="79.5938"/><ellipse cx="25" cy="93.2422" fill="#84BE84" rx="3" ry="3" style="stroke:#038048;stroke-width:1;"/><text fill="#000000" font-family="sans-serif" font-size="14" lengthAdjust="spacing" textLength="45.0283" x="34" y="96.5889">login()</text><ellipse cx="25" cy="109.5391" fill="#84BE84" rx="3" ry="3" style="stroke:#038048;stroke-width:1;"/><text fill="#000000" font-family="sans-serif" font-size="14" lengthAdjust="spacing" textLength="55.1934" x="34" y="112.8857">logout()</text></g><!--class Post--><g class="entity" data-entity="Post" data-source-line="8" data-uid="ent0003" id="entity_Post"><rect fill="#F1F1F1" height="96.8906" rx="2.5" ry="2.5" style="stroke:#181818;stroke-width:0.5;" width="125.832" x="7" y="197"/><ellipse cx="50.8185" cy="213" fill="#ADD1B2" rx="11" ry="11" style="stroke:#181818;stroke-width:1;"/><path d="M53.7872,218.6406 Q53.2091,218.9375 52.5685,219.0781 Q51.9278,219.2344 51.2247,219.2344 Q48.7247,219.2344 47.3966,217.5938 Q46.0841,215.9375 46.0841,212.8125 Q46.0841,209.6875 47.3966,208.0313 Q48.7247,206.375 51.2247,206.375 Q51.9278,206.375 52.5685,206.5313 Q53.2247,206.6875 53.7872,206.9844 L53.7872,209.7031 Q53.1622,209.125 52.5685,208.8594 Q51.9747,208.5781 51.3497,208.5781 Q50.006,208.5781 49.3185,209.6563 Q48.631,210.7188 48.631,212.8125 Q48.631,214.9063 49.3185,215.9844 Q50.006,217.0469 51.3497,217.0469 Q51.9747,217.0469 52.5685,216.7813 Q53.1622,216.5 53.7872,215.9219 L53.7872,218.6406 Z " fill="#000000"/><text fill="#000000" font-family="sans-serif" font-size="14" lengthAdjust="spacing" textLength="29.791" x="71.2226" y="217.8467">Post</text><line style="stroke:#181818;stroke-width:0.5;" x1="8" x2="131.832" y1="229" y2="229"/><ellipse cx="18" cy="242.6484" fill="none" rx="3" ry="3" style="stroke:#038048;stroke-width:1;"/><text fill="#000000" font-family="sans-serif" font-size="14" lengthAdjust="spacing" textLength="73.6025" x="27" y="245.9951">String title</text><ellipse cx="18" cy="258.9453" fill="none" rx="3" ry="3" style="stroke:#038048;stroke-width:1;"/><text fill="#000000" font-family="sans-serif" font-size="14" lengthAdjust="spacing" textLength="99.832" x="27" y="262.292">String content</text><line style="stroke:#181818;stroke-width:0.5;" x1="8" x2="131.832" y1="269.5938" y2="269.5938"/><ellipse cx="18" cy="283.2422" fill="#84BE84" rx="3" ry="3" style="stroke:#038048;stroke-width:1;"/><text fill="#000000" font-family="sans-serif" font-size="14" lengthAdjust="spacing" textLength="61.5166" x="27" y="286.5889">publish()</text></g><!--class Comment--><g class="entity" data-entity="Comment" data-source-line="14" data-uid="ent0004" id="entity_Comment"><rect fill="#F1F1F1" height="80.5938" rx="2.5" ry="2.5" style="stroke:#181818;stroke-width:0.5;" width="100.5918" x="19.5" y="371"/><ellipse cx="34.5" cy="387" fill="#ADD1B2" rx="11" ry="11" style="stroke:#181818;stroke-width:1;"/><path d="M37.4688,392.6406 Q36.8906,392.9375 36.25,393.0781 Q35.6094,393.2344 34.9063,393.2344 Q32.4063,393.2344 31.0781,391.5938 Q29.7656,389.9375 29.7656,386.8125 Q29.7656,383.6875 31.0781,382.0313 Q32.4063,380.375 34.9063,380.375 Q35.6094,380.375 36.25,380.5313 Q36.9063,380.6875 37.4688,380.9844 L37.4688,383.7031 Q36.8438,383.125 36.25,382.8594 Q35.6563,382.5781 35.0313,382.5781 Q33.6875,382.5781 33,383.6563 Q32.3125,384.7188 32.3125,386.8125 Q32.3125,388.9063 33,389.9844 Q33.6875,391.0469 35.0313,391.0469 Q35.6563,391.0469 36.25,390.7813 Q36.8438,390.5 37.4688,389.9219 L37.4688,392.6406 Z " fill="#000000"/><text fill="#000000" font-family="sans-serif" font-size="14" lengthAdjust="spacing" textLength="68.5918" x="48.5" y="391.8467">Comment</text><line style="stroke:#181818;stroke-width:0.5;" x1="20.5" x2="119.0918" y1="403" y2="403"/><ellipse cx="30.5" cy="416.6484" fill="none" rx="3" ry="3" style="stroke:#038048;stroke-width:1;"/><text fill="#000000" font-family="sans-serif" font-size="14" lengthAdjust="spacing" textLength="74.1084" x="39.5" y="419.9951">String text</text><ellipse cx="30.5" cy="432.9453" fill="none" rx="3" ry="3" style="stroke:#038048;stroke-width:1;"/><text fill="#000000" font-family="sans-serif" font-size="14" lengthAdjust="spacing" textLength="69.4805" x="39.5" y="436.292">Date date</text><line style="stroke:#181818;stroke-width:0.5;" x1="20.5" x2="119.0918" y1="443.5938" y2="443.5938"/></g><!--link User to Post--><g class="link" data-entity-1="User" data-entity-2="Post" data-source-line="19" data-uid="lnk5" id="link_User_Post"><path codeLine="19" d="M70,120.47 C70,144.93 70,173.32 70,196.76" fill="none" id="User-Post" style="stroke:#181818;stroke-width:1;"/><polygon fill="#000000" points="75,163.5664,77.9389,154.5213,72.0611,154.5213,75,163.5664" style="stroke:#000000;stroke-width:1;"/><text fill="#000000" font-family="sans-serif" font-size="13" lengthAdjust="spacing" textLength="48.3247" x="84" y="163.0669">creates</text><text fill="#000000" font-family="sans-serif" font-size="13" lengthAdjust="spacing" textLength="8.271" x="61.533" y="140.3908">1</text><text fill="#000000" font-family="sans-serif" font-size="13" lengthAdjust="spacing" textLength="36.5625" x="31.5201" y="185.9352">many</text></g><!--link Post to Comment--><g class="link" data-entity-1="Post" data-entity-2="Comment" data-source-line="20" data-uid="lnk6" id="link_Post_Comment"><path codeLine="20" d="M70,294.38 C70,318.67 70,347.84 70,370.86" fill="none" id="Post-Comment" style="stroke:#181818;stroke-width:1;"/><polygon fill="#000000" points="75,337.5664,77.9389,328.5213,72.0611,328.5213,75,337.5664" style="stroke:#000000;stroke-width:1;"/><text fill="#000000" font-family="sans-serif" font-size="13" lengthAdjust="spacing" textLength="22.9785" x="84" y="337.0669">has</text><text fill="#000000" font-family="sans-serif" font-size="13" lengthAdjust="spacing" textLength="8.271" x="61.492" y="314.0392">1</text><text fill="#000000" font-family="sans-serif" font-size="13" lengthAdjust="spacing" textLength="36.5625" x="31.0991" y="359.9983">many</text></g><!--SRC=[LOvB2W8n343tFKNeIf5Pk9s56ps081uWrZ1JQ5DfCp0YtjssAhIRaC_BIup3bE2QAC9B0Umk4YrFmEYfAScZTQLsORAysVxIi4ZEtqgPQZc799r5hBXMOm8BiPJEOxavc-Ps_HYypzFUG6l5JoW4znmANh_LUmt30DeZF_Ntz0WcKcOI75HjzCpVFyAC1Va0]--></g></svg>